<svg width="24" height="16" viewBox="0 0 24 16" fill="none" xmlns="http://www.w3.org/2000/svg">
  <path fill-rule="evenodd" clip-rule="evenodd" d="M23.9823 8.09658C23.9823 12.199 20.6629 15.5247 16.5683 15.5247C12.4736 15.5247 9.15417 12.199 9.15417 8.09658C9.15417 3.99414 12.4736 0.668457 16.5683 0.668457C20.6629 0.668457 23.9823 3.99414 23.9823 8.09658Z" fill="#F79F1A"/>
  <path fill-rule="evenodd" clip-rule="evenodd" d="M14.836 8.09658C14.836 12.199 11.5166 15.5247 7.42189 15.5247C3.32721 15.5247 0.0078125 12.199 0.0078125 8.09658C0.0078125 3.99414 3.32721 0.668457 7.42189 0.668457C11.5166 0.668457 14.836 3.99414 14.836 8.09658Z" fill="#EA001B"/>
  <path fill-rule="evenodd" clip-rule="evenodd" d="M11.9951 2.24902C10.2652 3.60887 9.15479 5.72199 9.15479 8.0958C9.15479 10.4696 10.2652 12.5843 11.9951 13.9442C13.725 12.5843 14.8354 10.4696 14.8354 8.0958C14.8354 5.72199 13.725 3.60887 11.9951 2.24902Z" fill="#FF5F01"/>
</svg>