<svg width="26" height="7" viewBox="0 0 26 7" fill="none" xmlns="http://www.w3.org/2000/svg">
  <path fill-rule="evenodd" clip-rule="evenodd" d="M7.00618 0.25V0.252839C7.00297 0.252839 5.99061 0.25 5.72064 1.10437C5.47318 1.88777 4.77577 4.05066 4.75649 4.11026H4.56366C4.56366 4.11026 3.85019 1.89913 3.59951 1.10153C3.32954 0.247162 2.31397 0.25 2.31397 0.25H0V6.75H2.31397V2.88974H2.41038H2.5068L3.85661 6.75H5.46354L6.81335 2.89258H7.00618V6.75H9.32015V0.25H7.00618Z" fill="#4DB45E"/>
  <path fill-rule="evenodd" clip-rule="evenodd" d="M15.4586 0.25C15.4586 0.25 14.7804 0.30393 14.4623 0.931223L12.8232 4.11026H12.6304V0.25H10.3164V6.75H12.5018C12.5018 6.75 13.2121 6.69323 13.5302 6.06878L15.1372 2.88974H15.33V6.75H17.644V0.25H15.4586Z" fill="#4DB45E"/>
  <path fill-rule="evenodd" clip-rule="evenodd" d="M18.6724 3.20166V6.7497H20.9863V4.67764H23.4931C24.5858 4.67764 25.5114 4.0617 25.8553 3.20166H18.6724Z" fill="#4DB45E"/>
  <path fill-rule="evenodd" clip-rule="evenodd" d="M23.4933 0.25H18.3479C18.605 1.48755 19.6559 2.481 21.0154 2.80459C21.3239 2.87838 21.6485 2.91812 21.9828 2.91812H25.9486C25.984 2.77052 26.0001 2.62009 26.0001 2.46397C26.0001 1.24061 24.8784 0.25 23.4933 0.25Z" fill="url(#paint0_linear)"/>
  <defs>
  <linearGradient id="paint0_linear" x1="18.3485" y1="1.58406" x2="26.0001" y2="1.58406" gradientUnits="userSpaceOnUse">
  <stop offset="0.3" stop-color="#00B4E6"/>
  <stop offset="1" stop-color="#088CCB"/>
  </linearGradient>
  </defs>
</svg>