<svg width="24" height="9" viewBox="0 0 24 9" fill="none" xmlns="http://www.w3.org/2000/svg">
  <path fill-rule="evenodd" clip-rule="evenodd" d="M12.4212 3.22828C12.4076 4.3144 13.3814 4.92054 14.115 5.28089C14.8688 5.65066 15.1219 5.88775 15.1191 6.21837C15.1133 6.72445 14.5178 6.94777 13.9604 6.95647C12.988 6.97169 12.4227 6.69183 11.9731 6.48011L11.6229 8.13249C12.0738 8.34203 12.9089 8.52474 13.7748 8.53271C15.8074 8.53271 17.1372 7.52128 17.1444 5.953C17.1523 3.96275 14.4135 3.85255 14.4322 2.96292C14.4387 2.6932 14.694 2.40536 15.2536 2.33213C15.5305 2.29515 16.295 2.26687 17.1617 2.66927L17.5019 1.07055C17.0358 0.899439 16.4367 0.735579 15.6909 0.735579C13.7777 0.735579 12.432 1.76079 12.4212 3.22828ZM20.7707 0.873412C20.3996 0.873412 20.0868 1.09165 19.9472 1.42662L17.0437 8.41533H19.0748L19.479 7.28934H21.9611L22.1955 8.41533H23.9857L22.4235 0.873412H20.7707ZM21.0548 2.91065L21.641 5.74268H20.0357L21.0548 2.91065ZM9.95846 0.873412L8.35745 8.41533H10.2929L11.8932 0.873412H9.95846ZM7.09524 0.873412L5.08067 6.00673L4.26578 1.64196C4.17012 1.15473 3.79253 0.873412 3.37321 0.873412H0.0798444L0.0338135 1.09238C0.709893 1.24028 1.47803 1.47882 1.94338 1.73404C2.22819 1.88993 2.30947 2.02623 2.40297 2.39673L3.94644 8.41533H5.99194L9.1278 0.873412H7.09524Z" fill="url(#paint0_linear)"/>
  <defs>
  <linearGradient id="paint0_linear" x1="0.0755612" y1="3.13377" x2="6.84578" y2="-6.40114" gradientUnits="userSpaceOnUse">
  <stop stop-color="#222357"/>
  <stop offset="1" stop-color="#254AA5"/>
  </linearGradient>
  </defs>
</svg>