<svg width="50" height="50" viewBox="0 0 50 50" fill="none" xmlns="http://www.w3.org/2000/svg">
<g clip-path="url(#clip0)">
<circle cx="37" cy="37" r="12" fill="#F4484E"/>
<path d="M29.4631 24.4751C29.4631 24.0096 29.086 23.6329 28.6209 23.6329H23.1001V15.7186C23.1001 15.2535 22.723 14.8764 22.2579 14.8764C21.7928 14.8764 21.4156 15.2535 21.4156 15.7186V24.45C21.4156 24.9151 21.7541 25.3173 22.2192 25.3173H28.6209C29.086 25.3173 29.4631 24.9402 29.4631 24.4751Z" fill="black"/>
<path d="M45.8543 27.0622C46.0862 25.7381 46.203 24.3962 46.203 23.0519C46.203 13.7283 40.5867 5.32265 31.9726 1.75476C23.3588 -1.81312 13.4439 0.159165 6.85097 6.75169C0.258026 13.3446 -1.71426 23.2595 1.85362 31.8737C5.42151 40.4879 13.8272 46.1041 23.1511 46.1041C24.4955 46.1041 25.8369 45.9873 27.1611 45.7554C30.4539 49.3142 35.4298 50.7865 40.129 49.5926C44.8282 48.3984 48.4973 44.729 49.6915 40.0302C50.8857 35.331 49.4131 30.355 45.8543 27.0622ZM23.1511 44.4193C11.3688 44.4193 1.78371 34.8338 1.78371 23.0519C1.78371 11.2699 11.3688 1.68444 23.1511 1.68444C34.9331 1.68444 44.5186 11.2699 44.5186 23.0519C44.5182 23.987 44.4569 24.9209 44.3356 25.8483C43.2265 25.0867 42.0076 24.4994 40.7208 24.1067C40.7418 23.7555 40.7533 23.4031 40.7533 23.0523C40.7533 13.3463 32.8571 5.45013 23.1511 5.45013C13.4456 5.45013 5.54899 13.3463 5.54899 23.0523C5.54899 32.7583 13.4456 40.6544 23.1511 40.6544C23.5019 40.6544 23.8548 40.6429 24.2056 40.6219C24.5983 41.9087 25.1859 43.128 25.9475 44.2367C25.0202 44.358 24.0859 44.4189 23.1511 44.4193ZM23.6323 36.7678C23.6327 37.5007 23.6932 38.2322 23.8141 38.9552C23.5932 38.9642 23.372 38.9696 23.1507 38.9696C14.3737 38.9696 7.23301 31.8289 7.23301 23.0519C7.23301 14.2748 14.3737 7.13414 23.1507 7.13414C31.9282 7.13414 39.0689 14.2748 39.0689 23.0519C39.0689 23.2727 39.0631 23.4939 39.0536 23.7152C35.2152 23.0724 31.2879 24.1519 28.3171 26.6666C25.3463 29.1813 23.6327 32.8759 23.6323 36.7678ZM36.8671 48.3182C30.488 48.3182 25.3167 43.1473 25.3167 36.7682C25.3167 30.3891 30.488 25.2178 36.8671 25.2178C43.2462 25.2178 48.4175 30.3891 48.4175 36.7678C48.4101 43.144 43.2433 48.3112 36.8671 48.3182Z" fill="black"/>
<path d="M33.8889 37.4011C34.8528 36.7415 36.059 35.9203 36.059 34.506C36.059 33.0564 34.771 32.2742 33.5562 32.2742C32.3772 32.2742 31.1258 33.0005 31.1258 34.3481C31.1258 34.9571 31.3848 35.2536 31.9166 35.2536C32.5112 35.2536 32.8324 34.9173 32.8324 34.6006C32.8324 33.9595 33.2946 33.8637 33.5693 33.8637C34.1208 33.8637 34.317 34.2383 34.317 34.5587C34.317 35.1652 33.5829 35.7019 32.809 36.2698C31.9186 36.9237 30.995 37.5993 30.995 38.4962V39.5173C30.995 39.8579 31.4556 40.0561 31.7689 40.0561H35.517C35.8085 40.0561 36.0643 39.7238 36.0643 39.3084C36.0643 38.898 35.8135 38.5822 35.517 38.5822H32.7855V38.4962C32.7855 38.1471 33.3041 37.8013 33.8889 37.4011Z" fill="white"/>
<path d="M42.1819 36.7925H41.7341V36.1481C41.7341 35.7438 41.2953 35.6007 40.8919 35.6007C40.4889 35.6007 40.0497 35.7438 40.0497 36.1481V36.7925H39.2667L41.0934 33.1481C41.1267 33.0827 41.1464 33.0112 41.1501 32.9375C41.1501 32.5197 40.5843 32.2689 40.2762 32.2689C39.9649 32.2631 39.6791 32.4404 39.5455 32.7216L37.1134 37.4903C37.055 37.5993 37.0242 37.7202 37.0229 37.8436C37.0229 38.2149 37.2639 38.4769 37.6229 38.4769H40.0497V39.5173C40.0497 39.9006 40.4708 40.0754 40.8919 40.0754C41.313 40.0754 41.7341 39.9006 41.7341 39.5173V38.4769H42.1819C42.4636 38.4769 42.74 38.0435 42.74 37.6347C42.74 37.244 42.566 36.7925 42.1819 36.7925Z" fill="white"/>
</g>
<defs>
<clipPath id="clip0">
<rect width="50" height="50" fill="white"/>
</clipPath>
</defs>
</svg>
