<svg width="50" height="50" viewBox="0 0 50 50" fill="none" xmlns="http://www.w3.org/2000/svg">
<g clip-path="url(#clip0)">
<circle cx="38.3" cy="13" r="11" fill="#F4484E"/>
<path d="M38.4997 1.19287C33.5162 1.19287 29.2633 4.44465 27.67 8.79882H7.56402C7.11864 8.79882 6.75711 9.2003 6.75394 9.64528L6.5625 38.0629H0.831437C0.384075 38.0629 0 38.3868 0 38.835V42.4412C0.0102841 45.8361 2.68417 48.6251 6.07558 48.7786V48.7964H31.0867V48.7727C31.2893 48.7802 31.3727 48.7964 31.5009 48.7964H31.5183C35.0284 48.7908 37.8711 45.9437 37.8711 42.4336V24.2006C38.0737 24.2116 38.288 24.2176 38.4977 24.2176C44.8395 24.2176 50.0002 19.047 50.0002 12.7048C50.0002 6.36305 44.8418 1.19287 38.4997 1.19287ZM6.38371 47.1762H6.37857C3.75808 47.1727 1.63202 45.0537 1.62016 42.4328V39.683H25.1124V42.4214C25.1136 44.1119 25.7888 45.7325 26.9881 46.9243C27.0731 47.0093 27.1787 47.075 27.2677 47.1762H6.38371ZM36.251 42.4328C36.2514 45.049 34.1332 47.1711 31.5175 47.1762H31.5021C28.8756 47.1715 26.7456 45.0482 26.7326 42.4222V38.835C26.7393 38.6277 26.6602 38.4272 26.5134 38.2808C26.3667 38.1345 26.1661 38.0557 25.9593 38.0629H8.18266L8.36856 10.419H27.2203C27.0767 11.1606 27.0023 11.9137 26.9984 12.6688C26.9968 14.2657 27.3298 15.8447 27.9762 17.3046H20.3247C19.877 17.3046 19.5146 17.6673 19.5146 18.1147C19.5146 18.5621 19.877 18.9248 20.3247 18.9248H28.8551C30.5262 21.5528 33.1978 23.385 36.251 23.9981V42.4328ZM38.4997 22.5978C33.0427 22.5978 28.6185 18.174 28.6189 12.7167C28.6189 7.25935 33.0427 2.83557 38.5001 2.83557C43.957 2.83557 48.3808 7.25975 48.3808 12.7167C48.3749 18.1713 43.9546 22.5919 38.4997 22.5978Z" fill="black"/>
<path d="M15.1249 22.6959C13.695 22.6959 12.5321 23.822 12.5321 25.2065C12.5321 26.5909 13.695 27.717 15.1249 27.717C16.5548 27.717 17.7181 26.5909 17.7181 25.2065C17.7181 23.822 16.5548 22.6959 15.1249 22.6959ZM15.1249 26.0968C14.5882 26.0968 14.1523 25.6973 14.1523 25.2065C14.1523 24.7152 14.5885 24.3161 15.1249 24.3161C15.6613 24.3161 16.098 24.7156 16.098 25.2065C16.098 25.6973 15.6613 26.0968 15.1249 26.0968Z" fill="black"/>
<path d="M19.5146 25.2029C19.5146 25.6503 19.877 26.013 20.3247 26.013H31.1247C31.5721 26.013 31.9348 25.6503 31.9348 25.2029C31.9348 24.7555 31.5721 24.3928 31.1247 24.3928H20.3247C19.877 24.3928 19.5146 24.7555 19.5146 25.2029Z" fill="black"/>
<path d="M15.1249 15.6541C13.695 15.6541 12.5321 16.7806 12.5321 18.165C12.5321 19.5494 13.695 20.6755 15.1249 20.6755C16.5548 20.6755 17.7181 19.5494 17.7181 18.165C17.7181 16.7806 16.5548 15.6541 15.1249 15.6541ZM15.1249 19.0554C14.5882 19.0554 14.1523 18.6559 14.1523 18.165C14.1523 17.6741 14.5885 17.2742 15.1249 17.2742C15.6613 17.2742 16.098 17.6737 16.098 18.165C16.098 18.6559 15.6613 19.0557 15.1249 19.0557V19.0554Z" fill="black"/>
<path d="M15.1249 29.737C13.695 29.737 12.5321 30.8631 12.5321 32.2475C12.5321 33.6319 13.695 34.758 15.1249 34.758C16.5548 34.758 17.7181 33.6319 17.7181 32.2475C17.7181 30.8631 16.5548 29.737 15.1249 29.737ZM15.1249 33.1379C14.5882 33.1379 14.1523 32.7388 14.1523 32.2475C14.1523 31.7566 14.5885 31.3571 15.1249 31.3571C15.6613 31.3571 16.098 31.7566 16.098 32.2475C16.098 32.7384 15.6613 33.1379 15.1249 33.1379Z" fill="black"/>
<path d="M31.1247 31.481H20.3247C19.877 31.481 19.5146 31.8437 19.5146 32.291C19.5146 32.7384 19.877 33.1011 20.3247 33.1011H31.1247C31.5721 33.1011 31.9348 32.7384 31.9348 32.291C31.9348 31.8437 31.5721 31.481 31.1247 31.481Z" fill="black"/>
<path d="M39.3858 13.5824C41.3545 13.5824 42.3815 12.4446 42.3815 10.9403C42.3815 9.45739 41.3716 8.27273 39.3858 8.27273H36.2153V12.4659H34.8815V13.5824H36.2153V14.3153H34.8815V15.4361H36.2153V17H37.5278V15.4361H39.4497V14.3153H37.5278V13.5824H39.3858ZM37.5278 12.4659V9.39773H39.3858C40.5278 9.39773 41.0733 10.0582 41.0733 10.9446C41.0733 11.8395 40.5321 12.4659 39.3687 12.4659H37.5278Z" fill="white"/>
</g>
<defs>
<clipPath id="clip0">
<rect width="50" height="50" fill="white"/>
</clipPath>
</defs>
</svg>
