<svg width="50" height="50" viewBox="0 0 50 50" fill="none" xmlns="http://www.w3.org/2000/svg">
<g clip-path="url(#clip0)">
<circle cx="30.5" cy="16.5" r="15.5" fill="#F4484E"/>
<path d="M14.81 21.6927L14.8081 21.7245C14.685 23.8823 15.8936 25.9036 17.8881 26.8727L17.9086 26.8827C18.6118 27.219 19.1881 27.7736 19.5517 28.4631L19.5599 28.4781C20.5649 30.3918 22.6435 31.5517 24.8594 31.4354L24.8931 31.4336C25.6967 31.3886 26.4944 31.5958 27.1744 32.0267C29.0508 33.2004 31.4326 33.2004 33.3089 32.0267C33.9889 31.5958 34.7867 31.3886 35.5903 31.4336L35.6239 31.4354C37.8362 31.5527 39.9175 30.3918 40.9248 28.475L40.9298 28.4645C41.2948 27.7731 41.8725 27.2177 42.578 26.8809L42.5943 26.8727C44.5889 25.9031 45.7979 23.8823 45.6743 21.7241L45.6725 21.6941C45.6316 20.9341 45.8425 20.1818 46.2734 19.5541C47.5138 17.745 47.5138 15.3596 46.2739 13.55C45.8434 12.9228 45.6316 12.171 45.6725 11.411L45.6743 11.3791C45.7979 9.22098 44.5889 7.20008 42.5925 6.23009L42.5743 6.221C41.8725 5.88554 41.2975 5.33373 40.9334 4.64601L40.923 4.62555C39.9175 2.71193 37.8362 1.55239 35.6239 1.6683L35.5898 1.67012C34.7867 1.71512 33.9889 1.50784 33.3094 1.07694H33.3085C31.4321 -0.096691 29.0503 -0.096691 27.174 1.07694C26.494 1.50739 25.6963 1.71466 24.8926 1.66966L24.859 1.66784C22.6463 1.55057 20.5654 2.71147 19.5604 4.62464L19.5527 4.63873C19.1886 5.32964 18.6118 5.88464 17.9077 6.22145L17.8886 6.23054C15.894 7.19963 14.685 9.22098 14.8086 11.3791L14.8104 11.4091C14.8513 12.1691 14.6404 12.9214 14.2095 13.5487C12.9691 15.3582 12.9691 17.7441 14.2095 19.5532C14.64 20.1805 14.8513 20.9327 14.81 21.6927ZM15.7418 14.6059C16.4068 13.6378 16.7327 12.4769 16.669 11.3041L16.6672 11.2723C16.6018 9.84234 17.4045 8.51416 18.7004 7.90644L18.7163 7.89871C19.7795 7.38963 20.6499 6.55145 21.199 5.50873L21.2081 5.49146C21.8758 4.21965 23.2745 3.44874 24.7599 3.52783L24.7926 3.5292C25.9813 3.59601 27.1608 3.28965 28.1662 2.65238C29.4358 1.8583 31.0467 1.8583 32.3162 2.65238C33.3217 3.28874 34.5012 3.59556 35.6894 3.52965L35.7221 3.52783C37.2148 3.44965 38.6066 4.21965 39.2725 5.48782L39.2848 5.511C39.8339 6.55236 40.7034 7.38917 41.7652 7.8978L41.7807 7.90553C43.0971 8.54553 43.8961 9.86688 43.8157 11.2728L43.8139 11.306C43.7502 12.4787 44.0766 13.6391 44.7416 14.6073C45.5452 15.7796 45.5448 17.325 44.7407 18.4968C44.0761 19.4655 43.7502 20.6264 43.8139 21.7991L43.8157 21.8304C43.8961 23.2363 43.0971 24.5582 41.7802 25.1986L41.7666 25.205C40.7025 25.715 39.8312 26.5541 39.2816 27.5986L39.2748 27.6122C38.6066 28.884 37.2103 29.6554 35.7226 29.5759L35.6903 29.574C34.5017 29.5077 33.3217 29.8145 32.3158 30.4513C31.0467 31.2449 29.4358 31.2449 28.1667 30.4513C27.2522 29.8718 26.1913 29.5645 25.1085 29.5654C25.0035 29.5654 24.8981 29.5681 24.7926 29.574L24.7599 29.5754C23.294 29.6686 21.9072 28.9013 21.2067 27.61L21.1972 27.5922C20.649 26.5513 19.7799 25.715 18.7186 25.2063L18.7013 25.1977C17.3845 24.5577 16.5854 23.2359 16.6663 21.8304L16.6681 21.7973C16.7313 20.6245 16.405 19.4636 15.7404 18.4959C14.9372 17.3237 14.9377 15.7782 15.7418 14.6069V14.6059Z" fill="black"/>
<path d="M14.8098 21.6927L14.808 21.7245C14.6848 23.8823 15.8935 25.9036 17.888 26.8727L17.9085 26.8827C18.6116 27.219 19.188 27.7736 19.5516 28.4631L19.5598 28.4781C20.5648 30.3918 22.6434 31.5517 24.8593 31.4354L24.893 31.4336C25.6966 31.3886 26.4943 31.5958 27.1743 32.0267C29.0507 33.2004 31.4325 33.2004 33.3088 32.0267C33.9888 31.5958 34.7865 31.3886 35.5902 31.4336L35.6238 31.4354C37.8361 31.5527 39.9174 30.3918 40.9247 28.475L40.9297 28.4645C41.2947 27.7731 41.8724 27.2177 42.5778 26.8809L42.5942 26.8727C44.5887 25.9031 45.7978 23.8823 45.6742 21.7241L45.6724 21.6941C45.6315 20.9341 45.8424 20.1818 46.2733 19.5541C47.5137 17.745 47.5137 15.3596 46.2737 13.55C45.8433 12.9228 45.6315 12.171 45.6724 11.411L45.6742 11.3791C45.7978 9.22098 44.5887 7.20008 42.5924 6.23009L42.5742 6.221C41.8724 5.88554 41.2974 5.33373 40.9333 4.64601L40.9229 4.62555C39.9174 2.71193 37.8361 1.55239 35.6238 1.6683L35.5897 1.67012C34.7865 1.71512 33.9888 1.50784 33.3093 1.07694H33.3084C31.432 -0.096691 29.0502 -0.096691 27.1739 1.07694C26.4939 1.50739 25.6961 1.71466 24.8925 1.66966L24.8589 1.66784C22.6462 1.55057 20.5653 2.71147 19.5603 4.62464L19.5525 4.63873C19.1884 5.32964 18.6116 5.88464 17.9075 6.22145L17.8885 6.23054C15.8939 7.19963 14.6848 9.22098 14.8085 11.3791L14.8103 11.4091C14.8512 12.1691 14.6403 12.9214 14.2094 13.5487C12.9689 15.3582 12.9689 17.7441 14.2094 19.5532C14.6398 20.1805 14.8512 20.9327 14.8098 21.6927ZM15.7417 14.6059C16.4066 13.6378 16.7326 12.4769 16.6689 11.3041L16.6671 11.2723C16.6016 9.84234 17.4044 8.51416 18.7003 7.90644L18.7162 7.89871C19.7794 7.38963 20.6498 6.55145 21.1989 5.50873L21.208 5.49146C21.8757 4.21965 23.2743 3.44874 24.7598 3.52783L24.7925 3.5292C25.9811 3.59601 27.1607 3.28965 28.1661 2.65238C29.4357 1.8583 31.0466 1.8583 32.3161 2.65238C33.3215 3.28874 34.5011 3.59556 35.6893 3.52965L35.722 3.52783C37.2147 3.44965 38.6065 4.21965 39.2724 5.48782L39.2847 5.511C39.8338 6.55236 40.7033 7.38917 41.7651 7.8978L41.7806 7.90553C43.0969 8.54553 43.896 9.86688 43.8156 11.2728L43.8137 11.306C43.7501 12.4787 44.0765 13.6391 44.7415 14.6073C45.5451 15.7796 45.5446 17.325 44.7406 18.4968C44.076 19.4655 43.7501 20.6264 43.8137 21.7991L43.8156 21.8304C43.896 23.2363 43.0969 24.5582 41.7801 25.1986L41.7665 25.205C40.7024 25.715 39.831 26.5541 39.2815 27.5986L39.2747 27.6122C38.6065 28.884 37.2102 29.6554 35.7224 29.5759L35.6902 29.574C34.5015 29.5077 33.3215 29.8145 32.3156 30.4513C31.0466 31.2449 29.4357 31.2449 28.1666 30.4513C27.252 29.8718 26.1911 29.5645 25.1084 29.5654C25.0034 29.5654 24.898 29.5681 24.7925 29.574L24.7598 29.5754C23.2939 29.6686 21.9071 28.9013 21.2066 27.61L21.1971 27.5922C20.6489 26.5513 19.7798 25.715 18.7185 25.2063L18.7012 25.1977C17.3844 24.5577 16.5853 23.2359 16.6662 21.8304L16.668 21.7973C16.7312 20.6245 16.4048 19.4636 15.7403 18.4959C14.9371 17.3237 14.9376 15.7782 15.7417 14.6069V14.6059Z" fill="black"/>
<path d="M25.3398 23.8915C25.6779 24.1006 26.1231 23.9983 26.3343 23.6636L34.8866 10.0994C35.0262 9.88262 35.0378 9.60831 34.9165 9.38111C34.7953 9.15356 34.5598 9.00838 34.3003 9.00035C34.0409 8.99232 33.797 9.12285 33.6616 9.34237L25.1097 22.9066C24.8985 23.2417 25.0014 23.6825 25.3398 23.8915Z" fill="white"/>
<path d="M25.4998 16C27.4297 16 29 14.4298 29 12.4998C29 10.5699 27.4297 9 25.4998 9C23.57 9 22 10.5699 22 12.4998C22 14.4298 23.57 16 25.4998 16ZM25.4998 10.39C26.5559 10.39 27.4149 11.3365 27.4149 12.4998C27.4149 13.6632 26.5559 14.61 25.4998 14.61C24.4441 14.61 23.5851 13.6628 23.5851 12.4998C23.5851 11.3368 24.4441 10.39 25.4998 10.39Z" fill="white"/>
<path d="M31 20C31 21.6543 32.3457 23 33.9998 23C35.654 23 37 21.654 37 20C37 18.3463 35.6543 17 34.0002 17C32.3457 17 31 18.3454 31 20ZM35.6414 20C35.6414 20.9972 34.905 21.8085 33.9998 21.8085C33.095 21.8085 32.3586 20.9972 32.3586 20C32.3586 19.0028 33.095 18.1915 33.9998 18.1915C34.905 18.1915 35.6414 19.0022 35.6414 20Z" fill="white"/>
<path d="M49.8792 36.6531C48.6465 34.4654 45.9129 33.6322 43.6697 34.7604L36.3775 38.2058C35.3706 36.3335 33.4393 35.1417 31.3139 35.0817L24.5821 34.8963C23.5162 34.8658 22.4703 34.5954 21.5226 34.1063L20.8376 33.7513C17.3303 31.9231 13.1499 31.9277 9.64627 33.7631L9.68899 32.2113C9.70308 31.6972 9.29809 31.269 8.784 31.2549L1.40223 31.0517C0.888139 31.0377 0.460415 31.4427 0.446324 31.9567L0.000417852 48.1562C-0.013673 48.6703 0.391324 49.0985 0.905412 49.1125L8.28718 49.3157H8.31309C8.81718 49.3153 9.22945 48.9139 9.24354 48.4103L9.26445 47.6353L11.1822 46.6085C11.9349 46.2035 12.8153 46.1071 13.6376 46.3398L25.0889 49.5539C25.1089 49.5598 25.1289 49.5644 25.1493 49.5689C25.9771 49.7421 26.8207 49.8289 27.6666 49.8284C29.4575 49.8294 31.2275 49.4435 32.8552 48.6962C32.8952 48.678 32.9338 48.6571 32.9707 48.6335L49.5742 37.8931C49.9883 37.6258 50.1219 37.0817 49.8792 36.6531ZM1.88722 47.2766L2.28177 32.939L7.80264 33.0908L7.40764 47.4289L1.88722 47.2766ZM32.0161 47.0326C29.9939 47.9453 27.7352 48.1971 25.5616 47.7526L14.1408 44.5476C12.8558 44.1839 11.4794 44.3348 10.3035 44.9671L9.32354 45.4917L9.58627 35.9585C12.6912 33.8931 16.6739 33.6808 19.9812 35.404L20.6662 35.759C21.8635 36.3772 23.1844 36.7185 24.5312 36.7572L31.2629 36.9426C33.1538 36.9967 34.7597 38.3431 35.1434 40.1958L25.1162 39.9199C24.6021 39.9058 24.1744 40.3108 24.1603 40.8249C24.1462 41.339 24.5512 41.7671 25.0653 41.7812L36.1311 42.0858H36.1575C36.6611 42.0853 37.0734 41.684 37.0875 41.1803C37.0988 40.7758 37.0684 40.3708 36.9975 39.9726L44.4756 36.4385L44.4974 36.4281C45.5583 35.8908 46.8415 36.0704 47.7137 36.8781L32.0161 47.0326Z" fill="black"/>
</g>
<defs>
<clipPath id="clip0">
<rect width="50" height="50" fill="white"/>
</clipPath>
</defs>
</svg>
