<svg width="50" height="50" viewBox="0 0 50 50" fill="none" xmlns="http://www.w3.org/2000/svg">
<ellipse cx="40.5" cy="34.5" rx="8.5" ry="7.5" fill="#F4484E"/>
<ellipse cx="41" cy="40" rx="6" ry="4" fill="#F4484E"/>
<ellipse cx="41" cy="43.5" rx="3" ry="2.5" fill="#F4484E"/>
<circle cx="41" cy="46" r="1" fill="#F4484E"/>
<path d="M41.5693 25.7874V23.1241C42.275 23.5077 43.0651 23.71 43.868 23.7119H43.9467C45.1929 23.71 46.3856 23.2062 47.2563 22.3146C48.1301 21.4307 48.618 20.236 48.6126 18.9929V15.9177C48.6126 15.9115 48.6079 15.9053 48.6079 15.8991C48.6079 15.8832 48.6052 15.8677 48.6037 15.8518C48.6029 15.8406 48.6006 15.8301 48.5994 15.8193C48.5975 15.8045 48.5947 15.7894 48.592 15.7751C48.5901 15.7631 48.5874 15.7515 48.5847 15.7398C48.582 15.7282 48.5781 15.7139 48.5746 15.7011C48.5711 15.6879 48.5668 15.6751 48.5626 15.6623C48.5587 15.6511 48.5544 15.6399 48.5502 15.629C48.5448 15.6151 48.5389 15.6011 48.5327 15.5875C48.5281 15.5775 48.5234 15.5678 48.5188 15.5585C48.5114 15.5441 48.5037 15.5302 48.4955 15.5162C48.4924 15.5108 48.4897 15.5054 48.4866 15.5004L43.3925 7.24578C43.2503 7.00669 42.9961 6.85673 42.7179 6.84782H38.3949V2.22801C38.3949 1.78975 38.0694 1.39178 37.6311 1.39178H10.971C10.5327 1.39178 10.2219 1.78975 10.2219 2.22801V6.84782H6.89214C6.63755 6.85634 6.40195 6.98306 6.2547 7.19076L0.15309 15.4341C0.14999 15.4384 0.147665 15.4484 0.144565 15.4527C0.135652 15.4651 0.127127 15.4806 0.11899 15.4938C0.113177 15.5031 0.106977 15.5135 0.101552 15.5236C0.0945769 15.5364 0.0876018 15.55 0.0810143 15.5631C0.0759768 15.5736 0.0705518 15.5844 0.0659017 15.5953C0.0604767 15.6077 0.0554392 15.6209 0.0504016 15.6337C0.0453641 15.6464 0.0414891 15.6573 0.0376141 15.6689C0.0337391 15.6809 0.0302516 15.6933 0.026764 15.7057C0.0232765 15.7181 0.0194014 15.7317 0.016689 15.7453C0.0139764 15.7569 0.012039 15.7685 0.0101014 15.7805C0.00738891 15.7949 0.00506388 15.8092 0.00351388 15.8235C0.00196387 15.8348 0.00118887 15.8456 0.000413863 15.8569C-0.000748644 15.8724 0.00196387 15.8875 0.00157637 15.9026C0.00157637 15.908 0.00467639 15.9127 0.00467639 15.9185V19.0468C0.0170765 21.6237 2.10688 23.7073 4.68377 23.7119H4.76243C5.53085 23.7193 6.28686 23.5162 6.94833 23.1249V42.9983C6.94833 43.4366 7.35094 43.7504 7.78921 43.7504H36.3435L40.1728 48.2683C40.3223 48.4485 40.5428 48.5539 40.7769 48.5582C41.0086 48.5597 41.2299 48.4594 41.381 48.2838L48.0832 40.414C48.6633 39.7669 49.1179 39.0175 49.4228 38.2037C50.4823 35.3951 50.0626 32.2234 48.3312 29.7174C46.7917 27.4478 44.3035 26.0017 41.5693 25.7874ZM30.0903 15.0815L29.3789 12.8991H37.4138L38.6437 15.0815H30.0903ZM39.1885 16.6687V19.8849C39.173 22.315 37.2084 24.2823 34.778 24.3009C32.3549 24.2889 30.3597 22.3076 30.3597 19.8888V16.6687H39.1885ZM11.5302 12.8991H19.2232L18.5118 15.0815H10.0766L11.5302 12.8991ZM9.42834 16.6687H18.2572V19.8849C18.2417 22.315 16.2771 24.2819 13.847 24.3009C11.424 24.2889 9.52754 22.3076 9.42834 19.8888V16.6687ZM19.8444 16.6687H28.6733V19.8849C28.6578 22.315 26.6931 24.2823 24.2627 24.3009C21.84 24.2889 19.9436 22.3076 19.8444 19.8888V16.6687ZM20.1749 15.0815L20.8864 12.8991H27.7157L28.4272 15.0815H20.1749ZM46.1271 21.1994C45.5501 21.7899 44.76 22.1232 43.9343 22.1247H43.9005C43.8967 22.1247 43.8928 22.1212 43.8885 22.1212C42.1773 22.1297 40.7831 20.7487 40.7757 19.0375V16.6687H47.0254V18.998C47.0292 19.8218 46.7061 20.6134 46.1271 21.1994ZM42.2754 8.43503L46.3871 15.0815H40.4479L38.3949 11.3831V8.43503H42.2754ZM36.8077 2.97899V11.3118H28.335C28.3109 11.2126 28.2869 11.2126 28.2629 11.3118H11.8092V2.97899H36.8077ZM7.29166 8.43503H10.2219V12.0194L8.1926 15.0815H2.3665L7.29166 8.43503ZM4.75003 22.1247H4.71632C4.71244 22.1247 4.70857 22.1212 4.7043 22.1212C3.88241 22.1255 3.09268 21.8027 2.50872 21.2242C1.92475 20.6456 1.59499 19.8586 1.5915 19.0367V16.6687H7.84113V18.998C7.84501 19.8218 7.52183 20.6134 6.9429 21.1994C6.36591 21.7899 5.5758 22.1232 4.75003 22.1247ZM8.53554 42.1632V22.6552C9.62675 24.564 11.5697 25.8765 13.8699 25.8881C16.0267 25.8719 18.0123 24.7101 19.083 22.8373C20.1455 24.7303 22.1508 25.8982 24.3216 25.8881C26.4924 25.8781 28.4869 24.6919 29.5316 22.7889C30.5751 24.7047 32.5843 25.8943 34.766 25.8881C36.9472 25.8819 38.9494 24.6807 39.9821 22.7594V25.7816C37.1069 26.028 34.5117 27.6048 32.9687 30.0437C31.4261 32.483 31.1126 35.5032 32.1216 38.2068C32.4344 39.0105 32.8889 39.751 33.4636 40.3935L34.9923 42.1632H8.53554ZM47.9356 37.6508C47.9337 37.6554 47.9321 37.6597 47.9306 37.6643C47.7221 38.2467 47.3888 38.7923 46.88 39.3813L46.8766 39.3856L40.7769 46.5505L34.673 39.3813C34.2207 38.8722 33.8631 38.2859 33.6178 37.6508C32.7424 35.3029 33.0757 32.6752 34.5094 30.6207C35.9339 28.565 38.2756 27.3386 40.7765 27.3386C43.2774 27.3386 45.6195 28.565 47.044 30.6207C48.4773 32.6752 48.8106 35.3029 47.9356 37.6508Z" fill="black"/>
<path d="M40.7765 29.5098C37.7563 29.5098 35.3081 31.958 35.3081 34.9782C35.3081 37.9988 37.7563 40.447 40.7765 40.447C43.7967 40.447 46.2454 37.9988 46.2454 34.9782C46.2419 31.9596 43.7956 29.5133 40.7765 29.5098ZM40.7765 38.8598C38.6329 38.8598 36.8953 37.1219 36.8953 34.9782C36.8953 32.8345 38.6329 31.097 40.7765 31.097C42.9202 31.097 44.6582 32.8345 44.6582 34.9782C44.6554 37.1211 42.9194 38.8575 40.7765 38.8598Z" fill="white"/>
</svg>
