<svg viewBox="0 0 48 47" fill="none" xmlns="http://www.w3.org/2000/svg">
  <path d="M2.32617 1.32596L4.18395 7.51855M4.18395 7.51855L11.6151 32.2889H45.6743V13.7111C45.6743 10.2911 42.9018 7.51855 39.4817 7.51855H4.18395ZM39.4817 44.6741C37.7717 44.6741 36.3854 43.2878 36.3854 41.5778C36.3854 39.8678 37.7717 38.4815 39.4817 38.4815C41.1918 38.4815 42.578 39.8678 42.578 41.5778C42.578 43.2878 41.1918 44.6741 39.4817 44.6741ZM14.7114 41.5778C14.7114 39.8678 16.0976 38.4815 17.8077 38.4815C19.5177 38.4815 20.9039 39.8678 20.9039 41.5778C20.9039 43.2878 19.5177 44.6741 17.8077 44.6741C16.0976 44.6741 14.7114 43.2878 14.7114 41.5778Z" stroke="currentColor" stroke-width="3"/>
</svg>
