<svg width="23" height="22" viewBox="0 0 23 22" fill="none" xmlns="http://www.w3.org/2000/svg">
<path fill-rule="evenodd" clip-rule="evenodd" d="M16.4738 14.1883L22.6606 20.1062C22.878 20.3143 23.0001 20.5966 23 20.8909C22.9999 21.1851 22.8776 21.4673 22.66 21.6753C22.4424 21.8833 22.1473 22.0001 21.8397 22C21.532 21.9999 21.237 21.8829 21.0196 21.6747L14.8329 15.7569C12.9834 17.1271 10.6577 17.7719 8.32891 17.5601C6.0001 17.3484 3.84309 16.2959 2.2967 14.6169C0.750313 12.9379 -0.0693016 10.7584 0.00459556 8.52184C0.0784927 6.28529 1.04035 4.15967 2.6945 2.57741C4.34864 0.995143 6.57082 0.0750819 8.90897 0.00439586C11.2471 -0.0662901 13.5256 0.717709 15.2809 2.1969C17.0362 3.67609 18.1365 5.73937 18.3579 7.96699C18.5793 10.1946 17.9051 12.4192 16.4727 14.1883H16.4738ZM9.20043 15.3994C11.0303 15.3994 12.7853 14.704 14.0792 13.4663C15.3732 12.2286 16.1001 10.5499 16.1001 8.79953C16.1001 7.04914 15.3732 5.37044 14.0792 4.13272C12.7853 2.89501 11.0303 2.19967 9.20043 2.19967C7.37052 2.19967 5.61556 2.89501 4.32162 4.13272C3.02768 5.37044 2.30075 7.04914 2.30075 8.79953C2.30075 10.5499 3.02768 12.2286 4.32162 13.4663C5.61556 14.704 7.37052 15.3994 9.20043 15.3994Z" fill="black"/>
</svg>
