<svg width="20" height="21" viewBox="0 0 20 21" fill="none" xmlns="http://www.w3.org/2000/svg">
  <path d="M7.8668 9.73335V16.1333M12.1335 9.73335V16.1333M1.4668 5.46668H18.5335M17.4668 5.46668L16.542 18.4181C16.5037 18.9564 16.2628 19.4601 15.868 19.8278C15.4731 20.1956 14.9536 20.4 14.414 20.4H5.58626C5.04668 20.4 4.52713 20.1956 4.13227 19.8278C3.73741 19.4601 3.49657 18.9564 3.45826 18.4181L2.53346 5.46668H17.4668ZM13.2001 5.46668V2.26668C13.2001 1.98378 13.0877 1.71247 12.8877 1.51243C12.6877 1.31239 12.4164 1.20001 12.1335 1.20001H7.8668C7.5839 1.20001 7.31259 1.31239 7.11255 1.51243C6.91251 1.71247 6.80013 1.98378 6.80013 2.26668V5.46668H13.2001Z" stroke="currentColor" stroke-linecap="round" stroke-linejoin="round"/>
</svg>
