<svg xmlns="http://www.w3.org/2000/svg"><symbol fill="none" id="sprite-coolicon" viewBox="0 0 8 13"><title>coolicon</title><path d="M1.143 13L8 6.5 1.143 0 0 1.083 5.715 6.5 0 11.917 1.143 13z" fill="#1F2125"/></symbol><symbol fill="none" id="sprite-menu" viewBox="0 0 27 19"><title>menu</title><path d="M1 1h25M1 9.5h25M1 18h25" stroke="#000" stroke-width="2" stroke-linecap="round" stroke-linejoin="round"/></symbol><symbol fill="none" id="sprite-search" viewBox="0 0 23 22"><title>search</title><path fill-rule="evenodd" clip-rule="evenodd" d="M16.474 14.188l6.187 5.918c.217.208.34.49.339.785 0 .294-.122.576-.34.784a1.187 1.187 0 01-.82.325c-.308 0-.603-.117-.82-.325l-6.187-5.918a9.498 9.498 0 01-6.504 1.803C6 17.348 3.843 16.296 2.297 14.617.75 12.937-.07 10.758.005 8.522.078 6.285 1.04 4.16 2.695 2.577 4.348.995 6.57.075 8.909.004c2.338-.07 4.617.714 6.372 2.193 1.755 1.48 2.856 3.542 3.077 5.77.221 2.228-.453 4.452-1.885 6.221zM9.2 15.4c1.83 0 3.585-.695 4.88-1.933C15.372 12.23 16.1 10.55 16.1 8.8s-.727-3.43-2.02-4.667A7.062 7.062 0 009.2 2.2c-1.83 0-3.584.695-4.878 1.933C3.028 5.37 2.3 7.049 2.3 8.8c0 1.75.727 3.429 2.02 4.666a7.062 7.062 0 004.88 1.933z" fill="#000"/></symbol></svg>