<svg xmlns="http://www.w3.org/2000/svg"><symbol id="sprite-arrow-down" viewBox="0 0 20 20"><title>arrow-down</title><path fill-rule="evenodd" clip-rule="evenodd" d="M10 0C4.48 0 0 4.48 0 10s4.48 10 10 10 10-4.48 10-10S15.52 0 10 0zm0 2c4.41 0 8 3.59 8 8s-3.59 8-8 8-8-3.59-8-8 3.59-8 8-8zM6 9l4 4 4-4H6z" fill="currentColor"/></symbol><symbol id="sprite-arrow-next" viewBox="0 0 12 20"><title>arrow-next</title><path d="M.165 18.13l1.77 1.77 9.9-9.9-9.9-9.9-1.77 1.77L8.295 10l-8.13 8.13z" fill="currentColor"/></symbol><symbol id="sprite-arrow-prev" viewBox="0 0 12 20"><title>arrow-prev</title><path d="M11.835 1.87L10.055.1.165 10l9.9 9.9 1.77-1.77L3.705 10l8.13-8.13z" fill="currentColor"/></symbol><symbol fill="none" id="sprite-breadcrumbs" viewBox="0 0 10 6"><title>breadcrumbs</title><path d="M9.942 2.85L7.72.825a.186.186 0 00-.203-.03.168.168 0 00-.11.168V2.26H.185a.18.18 0 00-.133.052.18.18 0 00-.052.133v1.111a.18.18 0 00.052.133.18.18 0 00.133.052h7.222v1.296c0 .078.037.133.11.168a.18.18 0 00.203-.035l2.222-2.048a.19.19 0 000-.272z" fill="#000"/></symbol><symbol class="product__add-ico icon-cart" id="sprite-cart" viewBox="0 0 16 16"><title>cart</title><path d="M8 1a2.5 2.5 0 012.5 2.5V4h-5v-.5A2.5 2.5 0 018 1zm3.5 3v-.5a3.5 3.5 0 10-7 0V4H1v10a2 2 0 002 2h10a2 2 0 002-2V4h-3.5zM2 5h12v9a1 1 0 01-1 1H3a1 1 0 01-1-1V5z"/></symbol><symbol id="sprite-checkbox" viewBox="0 0 24 24"><title>checkbox</title><path d="M8.795 15.875l-4.17-4.17-1.42 1.41 5.59 5.59 12-12-1.41-1.41-10.59 10.58z" fill="currentColor"/></symbol><symbol id="sprite-cross" viewBox="0 0 16 16"><title>cross</title><path d="M1.293 1.293a1 1 0 011.414 0L8 6.586l5.293-5.293a1 1 0 111.414 1.414L9.414 8l5.293 5.293a1 1 0 01-1.414 1.414L8 9.414l-5.293 5.293a1 1 0 01-1.414-1.414L6.586 8 1.293 2.707a1 1 0 010-1.414z"/></symbol><symbol id="sprite-delivery" viewBox="0 0 20 20"><title>delivery</title><path fill-rule="evenodd" fill="#d88861" d="M18.009 19.003H2.221c-1.101 0-1.996-.911-1.996-2.03V2.177c0-1.118.895-2.028 1.996-2.028h15.788c1.101 0 1.998.91 1.998 2.028v14.796c0 1.119-.897 2.03-1.998 2.03zm.363-8.451h-3.514a.31.31 0 00-.306.312v1.729a.31.31 0 00.306.312h3.514v-2.353zm0-7.088H3.456a.411.411 0 01-.408-.415c0-.229.182-.415.408-.415h14.916v-.457a.365.365 0 00-.363-.368H2.221a.366.366 0 00-.362.368v2.315c.118-.022.238-.038.362-.038h15.788c.124 0 .245.016.363.038V3.464zm0 3.018a.365.365 0 00-.363-.367H2.221a.366.366 0 00-.362.367v10.491c0 .203.163.369.362.369h15.788a.366.366 0 00.363-.369v-2.409h-3.514c-1.069 0-1.94-.884-1.94-1.971v-1.729c0-1.087.871-1.971 1.94-1.971h3.514V6.482z"/></symbol><symbol id="sprite-gift" viewBox="0 0 16 16"><title>gift</title><path d="M3 2.5a2.5 2.5 0 015 0 2.5 2.5 0 015 0v.006c0 .07 0 .27-.038.494H15a1 1 0 011 1v2a1 1 0 01-1 1v7.5a1.5 1.5 0 01-1.5 1.5h-11A1.5 1.5 0 011 14.5V7a1 1 0 01-1-1V4a1 1 0 011-1h2.038A2.968 2.968 0 013 2.506V2.5zm1.068.5H7v-.5a1.5 1.5 0 10-3 0c0 .085.002.274.045.43a.522.522 0 00.023.07zM9 3h2.932a.56.56 0 00.023-.07c.043-.156.045-.345.045-.43a1.5 1.5 0 00-3 0V3zM1 4v2h6V4H1zm8 0v2h6V4H9zm5 3H9v8h4.5a.5.5 0 00.5-.5V7zm-7 8V7H2v7.5a.5.5 0 00.5.5H7z"/></symbol><symbol id="sprite-instagram" viewBox="0 0 24 24"><title>instagram</title><path d="M16.032 3H7.967A4.973 4.973 0 003 7.967v8.066A4.973 4.973 0 007.967 21h8.066A4.973 4.973 0 0021 16.033V7.967A4.973 4.973 0 0016.032 3zm3.371 13.033a3.374 3.374 0 01-3.37 3.37H7.967a3.374 3.374 0 01-3.37-3.37V7.967a3.374 3.374 0 013.37-3.37h8.066a3.374 3.374 0 013.37 3.37v8.066z" fill="currentColor"/><path d="M12 7.362A4.643 4.643 0 007.362 12 4.643 4.643 0 0012 16.638 4.643 4.643 0 0016.638 12 4.643 4.643 0 0012 7.362zm0 7.679a3.044 3.044 0 01-3.041-3.04A3.045 3.045 0 0112 8.958 3.045 3.045 0 0115.041 12 3.044 3.044 0 0112 15.041zm4.833-9.033a1.176 1.176 0 00-1.171 1.171c0 .308.125.61.343.828.218.218.52.343.828.343.308 0 .61-.125.828-.343a1.176 1.176 0 000-1.657 1.176 1.176 0 00-.828-.342z" fill="currentColor"/></symbol><symbol id="sprite-menu" viewBox="0 0 18 12"><title>menu</title><path fill-rule="evenodd" clip-rule="evenodd" d="M0 2V0h18v2H0zm0 5h18V5H0v2zm0 5h18v-2H0v2z" fill="currentColor"/></symbol><symbol fill="none" id="sprite-mini-cart" viewBox="0 0 48 47"><title>mini-cart</title><path d="M2.326 1.326l1.858 6.193m0 0l7.431 24.77h34.06V13.71a6.193 6.193 0 00-6.193-6.192H4.184zm35.298 37.155a3.096 3.096 0 110-6.193 3.096 3.096 0 010 6.193zm-24.77-3.096a3.096 3.096 0 116.192 0 3.096 3.096 0 01-6.193 0z" stroke="currentColor" stroke-width="3"/></symbol><symbol id="sprite-minus" viewBox="0 0 12 2"><title>minus</title><path fill-rule="evenodd" clip-rule="evenodd" d="M0 1a1 1 0 011-1h10a1 1 0 110 2H1a1 1 0 01-1-1z"/></symbol><symbol id="sprite-person" viewBox="0 0 16 16"><title>person</title><path d="M3 14s-1 0-1-1 1-4 6-4 6 3 6 4-1 1-1 1H3zm5-6a3 3 0 100-6 3 3 0 000 6z"/></symbol><symbol id="sprite-phone" viewBox="0 0 16 16"><title>phone</title><path fill-rule="evenodd" d="M1.885.511a1.745 1.745 0 012.61.163L6.29 2.98c.329.423.445.974.315 1.494l-.547 2.19a.678.678 0 00.178.643l2.457 2.457a.678.678 0 00.644.178l2.189-.547a1.745 1.745 0 011.494.315l2.306 1.794c.829.645.905 1.87.163 2.611l-1.034 1.034c-.74.74-1.846 1.065-2.877.702a18.634 18.634 0 01-7.01-4.42 18.634 18.634 0 01-4.42-7.009c-.362-1.03-.037-2.137.703-2.877L1.885.511z"/></symbol><symbol id="sprite-plus" viewBox="0 0 12 12"><title>plus</title><path fill-rule="evenodd" clip-rule="evenodd" d="M7 1a1 1 0 00-2 0v4H1a1 1 0 000 2h4v4a1 1 0 102 0V7h4a1 1 0 100-2H7V1z"/></symbol><symbol id="sprite-search" viewBox="0 0 16 16"><title>search</title><path d="M11.742 10.344a6.5 6.5 0 10-1.397 1.398h-.001c.03.04.062.078.098.115l3.85 3.85a1 1 0 001.415-1.414l-3.85-3.85a1.007 1.007 0 00-.115-.1zM12 6.5a5.5 5.5 0 11-11 0 5.5 5.5 0 0111 0z"/></symbol><symbol id="sprite-shopping-cart" viewBox="0 0 16 16"><title>shopping-cart</title><path d="M0 2.5A.5.5 0 01.5 2H2a.5.5 0 01.485.379L2.89 4H14.5a.5.5 0 01.485.621l-1.5 6A.5.5 0 0113 11H4a.5.5 0 01-.485-.379L1.61 3H.5a.5.5 0 01-.5-.5zM3.14 5l1.25 5h8.22l1.25-5H3.14zM5 13a1 1 0 100 2 1 1 0 000-2zm-2 1a2 2 0 114 0 2 2 0 01-4 0zm9-1a1 1 0 100 2 1 1 0 000-2zm-2 1a2 2 0 114 0 2 2 0 01-4 0z"/></symbol><symbol fill="none" id="sprite-trash" viewBox="0 0 20 21"><title>trash</title><path d="M7.867 9.733v6.4m4.266-6.4v6.4M1.467 5.467h17.066m-1.066 0l-.925 12.951a2.133 2.133 0 01-2.128 1.982H5.586a2.133 2.133 0 01-2.128-1.982L2.533 5.467h14.934zm-4.267 0v-3.2A1.067 1.067 0 0012.134 1.2H7.866A1.067 1.067 0 006.8 2.267v3.2h6.4z" stroke="currentColor" stroke-linecap="round" stroke-linejoin="round"/></symbol><symbol id="sprite-viber" viewBox="0 0 512.006 512.006"><title>viber</title><path d="M502.05 407.127l-56.761-37.844-50.459-33.633c-9.738-6.479-22.825-4.355-30.014 4.873l-31.223 40.139c-6.707 8.71-18.772 11.213-28.39 5.888-21.186-11.785-46.239-22.881-101.517-78.23-55.278-55.349-66.445-80.331-78.23-101.517-5.325-9.618-2.822-21.683 5.888-28.389l40.139-31.223c9.227-7.188 11.352-20.275 4.873-30.014l-32.6-48.905-38.877-58.316C98.262.03 85.016-2.95 74.786 3.185L29.95 30.083A54.779 54.779 0 005.074 62.277C-7.187 106.98-9.659 205.593 148.381 363.633s256.644 155.56 301.347 143.298a54.771 54.771 0 0032.194-24.876l26.898-44.835c6.136-10.231 3.156-23.476-6.77-30.093zM291.309 79.447c82.842.092 149.977 67.226 150.069 150.069a8.828 8.828 0 0017.656 0c-.102-92.589-75.135-167.622-167.724-167.724a8.828 8.828 0 00-8.828 8.828 8.826 8.826 0 008.827 8.827z"/><path d="M291.309 132.412c53.603.063 97.04 43.501 97.103 97.103a8.828 8.828 0 0017.656 0c-.073-63.349-51.409-114.686-114.759-114.759a8.828 8.828 0 000 17.656z"/><path d="M291.309 185.378c24.365.029 44.109 19.773 44.138 44.138a8.828 8.828 0 0017.656 0c-.039-34.111-27.682-61.754-61.793-61.793a8.828 8.828 0 00-8.828 8.828 8.826 8.826 0 008.827 8.827z"/></symbol><symbol id="sprite-whatsapp" viewBox="0 0 16 16"><title>whatsapp</title><path d="M13.601 2.326A7.854 7.854 0 007.994 0C3.627 0 .068 3.558.064 7.926c0 1.399.366 2.76 1.057 3.965L0 16l4.204-1.102a7.933 7.933 0 003.79.965h.004c4.368 0 7.926-3.558 7.93-7.93A7.898 7.898 0 0013.6 2.326zM7.994 14.521a6.573 6.573 0 01-3.356-.92l-.24-.144-2.494.654.666-2.433-.156-.251a6.56 6.56 0 01-1.007-3.505c0-3.626 2.957-6.584 6.591-6.584a6.56 6.56 0 014.66 1.931 6.557 6.557 0 011.928 4.66c-.004 3.639-2.961 6.592-6.592 6.592zm3.615-4.934c-.197-.099-1.17-.578-1.353-.646-.182-.065-.315-.099-.445.099-.133.197-.513.646-.627.775-.114.133-.232.148-.43.05-.197-.1-.836-.308-1.592-.985-.59-.525-.985-1.175-1.103-1.372-.114-.198-.011-.304.088-.403.087-.088.197-.232.296-.346.1-.114.133-.198.198-.33.065-.134.034-.248-.015-.347-.05-.099-.445-1.076-.612-1.47-.16-.389-.323-.335-.445-.34-.114-.007-.247-.007-.38-.007a.729.729 0 00-.529.247c-.182.198-.691.677-.691 1.654 0 .977.71 1.916.81 2.049.098.133 1.394 2.132 3.383 2.992.47.205.84.326 1.129.418.475.152.904.129 1.246.08.38-.058 1.171-.48 1.338-.943.164-.464.164-.86.114-.943-.049-.084-.182-.133-.38-.232z"/></symbol></svg>