<svg width="50" height="50" viewBox="0 0 50 50" fill="none" xmlns="http://www.w3.org/2000/svg">
<g clip-path="url(#clip0)">
<path d="M45.5166 1.97082C45.2442 0.813063 44.2093 -0.00404554 43.0195 -0.00023084H30.3139C29.1241 -0.00404554 28.0891 0.813063 27.8168 1.97082L23.3913 21.9709C23.2296 22.7003 23.4089 23.4636 23.8792 24.0442C24.3683 24.6523 25.108 25.004 25.8884 24.9998H32.5001V29.9997H27.5002C27.0397 29.9997 26.6666 30.3728 26.6666 30.8332V31.6663C26.6724 35.5989 29.422 38.994 33.2676 39.8164C32.9502 41.8371 31.2119 43.3275 29.1668 43.3332H24.1665C21.8666 43.3305 20.0027 41.4667 20.0001 39.1664V25.8333C19.9928 21.0664 16.3364 17.0995 11.5864 16.7047C11.2633 15.0537 9.98077 13.7579 8.33321 13.4172V11.6666C8.32863 7.52617 4.9736 4.17114 0.833511 4.16656C0.373077 4.16656 0 4.53964 0 4.99969V34.9996C0 35.4601 0.373077 35.8331 0.833511 35.8331C4.9736 35.8286 8.32863 32.4735 8.33321 28.3331V26.5821C9.92279 26.2521 11.1763 25.0303 11.5475 23.4499C12.6034 23.763 13.3293 24.7316 13.3335 25.8333V39.1664C13.34 45.1467 18.1866 49.9929 24.1665 49.9998H29.1668C34.8835 49.9906 39.6099 45.5427 39.9658 39.837C43.8587 39.0543 46.661 35.6371 46.6667 31.6663V30.8332C46.6667 30.3728 46.2936 29.9997 45.8332 29.9997H40.8333V24.9998H47.4449C48.2254 25.004 48.9647 24.6523 49.4537 24.0442C49.9241 23.4636 50.1038 22.7003 49.942 21.9709L45.5166 1.97082ZM6.66656 28.3331C6.66313 31.2315 4.53491 33.6893 1.66664 34.107V5.89271C4.53491 6.31042 6.66313 8.76785 6.66656 11.6666V28.3331ZM8.33321 24.8575V15.1422C9.33151 15.4966 9.9987 16.4407 9.99985 17.4997V22.4996C9.9987 23.559 9.33151 24.5027 8.33321 24.8575ZM29.1668 48.3331H24.1665C19.1063 48.3274 15.0059 44.2266 15.0002 39.1664V25.8333C14.9975 23.8542 13.6051 22.149 11.6665 21.7508V18.3824C15.4598 18.8104 18.3281 22.0159 18.3334 25.8333V39.1664C18.3372 42.3864 20.9465 44.996 24.1665 44.9999H29.1668C32.0644 44.9945 34.52 42.8644 34.9339 39.9965C34.9564 39.9965 34.9777 39.9999 34.9998 39.9999H38.2912C37.8563 44.716 33.9031 48.3266 29.1668 48.3331ZM38.3335 38.3333H34.9998C31.3198 38.3287 28.3375 35.3468 28.3333 31.6663H45.0001C44.9959 35.3468 42.0135 38.3287 38.3335 38.3333ZM39.1666 29.9997H34.1667V24.9998H39.1666V29.9997ZM48.1544 23.0013C47.9809 23.2137 47.7196 23.3362 47.4449 23.3331H28.5675L32.4749 7.70164C32.5756 7.25952 32.3044 6.81816 31.8642 6.7083C31.4243 6.59843 30.9772 6.8605 30.8582 7.29805L26.8494 23.3331H25.8884C25.6138 23.3362 25.3525 23.2137 25.1789 23.0013C25.0252 22.814 24.9664 22.5668 25.0191 22.3306L29.4445 2.33055C29.5448 1.9342 29.9049 1.65878 30.3139 1.66641H43.0195C43.4284 1.65878 43.7885 1.9342 43.8889 2.33055L48.3143 22.3306C48.3669 22.5668 48.3082 22.814 48.1544 23.0013Z" fill="#F4484E"/>
</g>
<defs>
<clipPath id="clip0">
<rect width="50" height="50" fill="white"/>
</clipPath>
</defs>
</svg>
