<svg width="50" height="50" viewBox="0 0 50 50" fill="none" xmlns="http://www.w3.org/2000/svg">
<path d="M39.5827 6.60249C40.2785 4.21449 39.1108 1.67811 36.8441 0.653864C34.5775 -0.370761 31.9022 0.428416 30.5694 2.52878L29.9903 3.44126C24.5261 -0.37305 17.4701 -1.06656 11.3678 1.61135C5.26578 4.28888 0.998288 9.95064 0.10527 16.5546C0.0728453 16.793 0.144943 17.0337 0.303252 17.2153C0.461562 17.3965 0.690443 17.5003 0.93115 17.5003H13.3228C13.7336 20.3693 16.191 22.4998 19.0894 22.4998C21.9878 22.4998 24.4453 20.3693 24.8561 17.5003H37.2477C37.4884 17.5003 37.7173 17.3965 37.8756 17.2153C38.0339 17.0337 38.106 16.793 38.0732 16.5546C37.839 14.8331 37.369 13.1519 36.6763 11.5589L37.0719 10.9383C39.004 11.9377 44.9225 15.5666 44.9225 22.5002C44.9225 34.0049 41.5213 41.6667 24.9229 41.6667C23.5427 41.6682 22.4242 42.7867 22.4227 44.1669C22.4258 44.4514 22.4776 44.7333 22.5764 45H19.9226V42.7875C19.9287 42.1722 19.6464 41.59 19.1593 41.2143C18.711 40.8675 18.1266 40.75 17.5788 40.8961L15.4956 41.4561C14.6537 41.6968 14.0777 42.4716 14.0895 43.3471V45.0843C12.1509 45.4825 10.7589 47.1877 10.7563 49.1668C10.7563 49.6268 11.1293 49.9999 11.5894 49.9999H38.256C38.7164 49.9999 39.0895 49.6268 39.0895 49.1668C39.083 47.2991 37.8333 45.6645 36.0324 45.1694C48.2455 41.3283 49.9228 30.8189 49.9228 22.5002C49.9228 13.1508 42.705 8.27332 39.5827 6.60249ZM31.9762 3.42218C32.9627 1.8696 35.0207 1.40955 36.5744 2.39451C38.0027 3.3066 38.5234 5.14299 37.7864 6.66924C37.7341 6.78483 37.6731 6.89622 37.6036 7.00227L35.8069 9.82246C34.6518 7.77436 33.1313 5.95513 31.3212 4.45444L31.9762 3.42218ZM19.0894 20.8336C17.1104 20.8309 15.4052 19.4389 15.0066 17.5003H23.1723C22.7737 19.4389 21.0685 20.8309 19.0894 20.8336ZM24.0894 15.8336H5.24785C6.33694 12.9333 10.1348 5.00032 19.0894 5.00032C19.5495 5.00032 19.9226 4.62724 19.9226 4.16681C19.9226 3.70676 19.5495 3.33368 19.0894 3.33368C8.46554 3.33368 4.37123 13.2355 3.4805 15.8336H1.91229C3.50721 7.60728 10.7101 1.66704 19.0894 1.66704C27.4688 1.66704 34.6717 7.60728 36.2666 15.8336H24.0894ZM15.7562 43.3471C15.7474 43.2262 15.8164 43.1129 15.9282 43.0656L18.0114 42.5056C18.0583 42.4918 18.1087 42.5036 18.1449 42.5365C18.2185 42.5986 18.2594 42.6909 18.2559 42.7875V45H15.7562V43.3471ZM34.9227 46.6666C35.9816 46.6678 36.9258 47.3353 37.2798 48.3333H12.5656C12.9199 47.3353 13.8637 46.6678 14.9227 46.6666H34.9227ZM24.9229 45C24.4624 45 24.0894 44.6269 24.0894 44.1669C24.0894 43.7064 24.4624 43.3333 24.9229 43.3333C44.0154 43.3333 46.5895 32.8021 46.5895 22.5002C46.5895 14.8815 40.3388 10.804 37.9668 9.53331L38.8713 8.11425C41.7624 9.67445 48.2562 14.1125 48.2562 22.5002C48.2562 33.6265 45.4836 45 24.9229 45Z" fill="#F4484E"/>
</svg>
