<svg width="50" height="50" viewBox="0 0 50 50" fill="none" xmlns="http://www.w3.org/2000/svg">
<g clip-path="url(#clip0)">
<path d="M0.834043 33.3348H4.16729V35.0015C3.70725 35.0015 3.33417 35.3745 3.33417 35.835V37.5016C3.33875 39.0172 4.36604 40.3386 5.83392 40.7166V43.3346C5.83392 46.096 8.07275 48.3348 10.8342 48.3348C13.5952 48.3348 15.8341 46.096 15.8341 43.3346V35.835C15.8341 34.9145 16.5802 34.168 17.5007 34.168C18.4212 34.168 19.1673 34.9145 19.1673 35.835V41.668H18.3338C17.8738 41.668 17.5007 42.041 17.5007 42.5015C17.5007 46.6434 20.8584 50.0015 25.0007 50.0015C29.1427 50.0015 32.5003 46.6434 32.5003 42.5015C32.5003 42.041 32.1272 41.668 31.6672 41.668H30.8337V35.835C30.8337 34.9145 31.5798 34.168 32.5003 34.168C33.4208 34.168 34.1669 34.9145 34.1669 35.835V43.3346C34.1669 46.096 36.4058 48.3348 39.1672 48.3348C41.9286 48.3348 44.1671 46.096 44.1671 43.3346V40.7166C45.635 40.3386 46.6623 39.0172 46.6668 37.5016V35.835C46.6668 35.3745 46.2938 35.0015 45.8337 35.0015V33.3348H49.167C49.421 33.3348 49.6613 33.2193 49.8193 33.0201C49.9776 32.8214 50.0363 32.5612 49.9791 32.314L47.4794 21.4808C47.392 21.1027 47.0552 20.835 46.6668 20.835H40.0003C39.6124 20.835 39.2755 21.1027 39.1882 21.4808L36.6884 32.314C36.6312 32.5612 36.69 32.8214 36.8479 33.0201C37.0062 33.2193 37.2465 33.3348 37.5006 33.3348H40.8338V35.0015C40.3734 35.0015 40.0003 35.3745 40.0003 35.835V37.5016C40.0049 39.0172 41.0326 40.3386 42.5005 40.7166V43.3346C42.5005 45.1755 41.0082 46.6678 39.1672 46.6678C37.3262 46.6678 35.834 45.1755 35.834 43.3346V35.835C35.834 33.994 34.3413 32.5013 32.5003 32.5013C30.6594 32.5013 29.1671 33.994 29.1671 35.835V41.668H28.218L25.9452 26.5154C27.381 26.0977 28.3595 24.7702 28.3332 23.2752C28.3072 21.7799 27.2834 20.4874 25.8338 20.1201V10.8352H30.0006C31.3807 10.8337 32.4988 9.71522 32.5003 8.33508V6.66845H33.3338C36.5538 6.66464 39.1634 4.05541 39.1672 0.835075C39.1672 0.375027 38.7941 0.00195312 38.3337 0.00195312H11.6673C11.2073 0.00195312 10.8342 0.375027 10.8342 0.835075C10.8376 4.05541 13.4472 6.66464 16.6672 6.66845H17.5007V8.33508C17.5022 9.71522 18.6207 10.8337 20.0004 10.8352H24.1672V20.1201C22.7176 20.4874 21.6938 21.7799 21.6678 23.2752C21.6419 24.7702 22.62 26.0977 24.0558 26.5154L21.783 41.668H20.8339V35.835C20.8339 33.994 19.3416 32.5013 17.5007 32.5013C15.6597 32.5013 14.1674 33.994 14.1674 35.835V43.3346C14.1674 45.1755 12.6748 46.6678 10.8342 46.6678C8.99323 46.6678 7.50055 45.1755 7.50055 43.3346V40.7166C8.96843 40.3386 9.9961 39.0172 10.0007 37.5016V35.835C10.0007 35.3745 9.6276 35.0015 9.16717 35.0015V33.3348H12.5008C12.7549 33.3348 12.9948 33.2193 13.1531 33.0201C13.311 32.8214 13.3702 32.5612 13.3129 32.314L10.8128 21.4808C10.7255 21.1027 10.3886 20.835 10.0007 20.835H3.33417C2.94584 20.835 2.60939 21.1027 2.52203 21.4808L0.0219012 32.314C-0.0353188 32.5612 0.023427 32.8214 0.181736 33.0201C0.340044 33.2193 0.579986 33.3348 0.834043 33.3348ZM40.6633 22.5016H46.0042L48.1198 31.6682H38.5477L40.6633 22.5016ZM42.5005 33.3348H44.1671V35.0015H42.5005V33.3348ZM41.667 37.5016V36.6681H45.0002V37.5016C45.0002 38.4221 44.2541 39.1682 43.3336 39.1682C42.4131 39.1682 41.667 38.4221 41.667 37.5016ZM30.8337 8.33508C30.8333 8.79513 30.4606 9.16782 30.0006 9.1682H22.5006V6.66845H30.8337V8.33508ZM12.5843 1.66858H37.4167C37.018 3.60719 35.3129 4.99916 33.3338 5.00183H16.6672C14.6881 4.99916 12.983 3.60719 12.5843 1.66858ZM19.1673 8.33508V6.66845H20.8339V9.1682H20.0004C19.5408 9.16782 19.1677 8.79513 19.1673 8.33508ZM25.0007 48.3348C22.1019 48.331 19.6445 46.2028 19.2268 43.3346H30.7746C30.3565 46.2028 27.8991 48.331 25.0007 48.3348ZM23.3341 23.3351C23.3341 22.4146 24.0802 21.6681 25.0007 21.6681C25.9212 21.6681 26.6673 22.4146 26.6673 23.3351C26.6673 24.2552 25.9212 25.0017 25.0007 25.0017C24.0806 25.0006 23.3348 24.2552 23.3341 23.3351ZM25.0007 31.4515L26.533 41.668H23.468L25.0007 31.4515ZM8.33405 37.5016C8.33405 38.4221 7.5879 39.1682 6.66743 39.1682C5.74695 39.1682 5.0008 38.4221 5.0008 37.5016V36.6681H8.33405V37.5016ZM7.50055 35.0015H5.83392V33.3348H7.50055V35.0015ZM3.99678 22.5016H9.33769L11.4533 31.6682H1.88155L3.99678 22.5016Z" fill="#F4484E"/>
</g>
<defs>
<clipPath id="clip0">
<rect width="50" height="50" fill="white"/>
</clipPath>
</defs>
</svg>
