<svg width="50" height="50" viewBox="0 0 50 50" fill="none" xmlns="http://www.w3.org/2000/svg">
<g clip-path="url(#clip0)">
<path d="M48.3331 6.66656H32.4998V1.66664C32.4987 0.746536 31.7533 0.00114441 30.8332 0H19.1667C18.2466 0.00114441 17.5008 0.746536 17.4996 1.66664V6.66656H1.66636C0.746259 6.66771 0.000866808 7.41348 -0.000277607 8.33321V11.6669C0.000866808 12.5866 0.746259 13.3324 1.66636 13.3335H7.4998V21.5565C6.87877 22.0535 6.45877 22.7585 6.31648 23.5409L5.90564 25.8377L0.132474 34.8072C-0.0185882 35.0414 -0.0422393 35.3355 0.0691499 35.5911C0.180158 35.8463 0.412091 36.0294 0.686368 36.0783L3.23039 36.5334C3.28151 38.5117 4.71431 40.1817 6.66171 40.5334C8.60911 40.8825 10.5329 39.8102 11.2603 37.9704L13.8105 38.4266C13.8589 38.4354 13.9081 38.4396 13.9573 38.4396C14.2099 38.4396 14.4487 38.3247 14.607 38.1279C14.7653 37.9311 14.8255 37.6732 14.7714 37.4264L12.4673 27.0111L12.8785 24.7143C13.0097 23.962 12.8759 23.1876 12.4997 22.5227V13.3335H22.5V21.9852C21.9659 22.5868 21.6695 23.3624 21.6664 24.1669V26.4999L17.5641 36.3461C17.4569 36.6032 17.4852 36.8969 17.6396 37.1288C17.7941 37.3608 18.0547 37.5 18.3332 37.5H20.9172C21.3136 39.4398 23.0199 40.8329 24.9997 40.8329C26.9796 40.8329 28.6862 39.4398 29.0822 37.5H31.6667C31.9451 37.5 32.2053 37.3608 32.3598 37.1288C32.5143 36.8969 32.5429 36.6032 32.4357 36.3461L28.333 26.4999V24.1669C28.33 23.3624 28.0339 22.5868 27.4999 21.9852V13.3335H37.4997V22.5227C37.1236 23.1876 36.9897 23.962 37.1209 24.7143L37.5322 27.0115L35.2277 37.4268C35.1731 37.6736 35.2338 37.9314 35.3917 38.1283C35.55 38.3251 35.7888 38.4399 36.0414 38.4399C36.0906 38.4399 36.1398 38.4357 36.1882 38.427L38.7384 37.9707C39.4658 39.8106 41.3896 40.8829 43.3374 40.5338C45.2844 40.1821 46.7172 38.512 46.7687 36.5337L49.3127 36.0786C49.587 36.0298 49.8185 35.8467 49.9299 35.5915C50.0413 35.3359 50.0173 35.0418 49.8662 34.8076L44.0946 25.8377L43.683 23.5409C43.5411 22.7585 43.1207 22.0535 42.4996 21.5565V13.3335H48.3331C49.2532 13.3324 49.9986 12.5866 49.9997 11.6669V8.33321C49.9986 7.41348 49.2532 6.66771 48.3331 6.66656ZM19.1667 1.66664H30.8332V6.66656H19.1667V1.66664ZM11.2378 24.4213L10.9445 26.0616L9.30377 25.7683L7.66345 25.4745L7.9568 23.8338C8.0617 23.2479 8.4714 22.7623 9.0314 22.5601C9.5914 22.3579 10.217 22.4697 10.6721 22.8539C11.1272 23.2376 11.3431 23.8354 11.2378 24.4213ZM6.95468 38.8931C5.91289 38.7051 5.10188 37.8819 4.92869 36.8374L9.56927 37.6678C9.04399 38.5872 7.99762 39.0774 6.95506 38.8931H6.95468ZM10.8243 36.1992H10.8235L4.26112 35.0246H4.25807L2.21072 34.6581L7.0962 27.0664L10.9239 27.7515L12.8747 36.5658L10.8243 36.1992ZM10.8331 21.0316C10.3051 20.8179 9.72949 20.7504 9.16644 20.8363V13.3335H10.8331V21.0316ZM26.6664 24.1669V25.8335H23.3331V24.1669C23.3331 23.2464 24.0792 22.5002 24.9997 22.5002C25.9202 22.5002 26.6664 23.2464 26.6664 24.1669ZM24.9997 39.1666C23.9408 39.1655 22.997 38.4983 22.6426 37.5H27.3568C27.0028 38.4983 26.0591 39.1655 24.9997 39.1666ZM28.333 35.8334H19.5832L23.0554 27.5002H26.9445L30.4166 35.8334H28.333ZM25.8332 20.9518C25.2889 20.7939 24.711 20.7939 24.1666 20.9518V13.3335H25.8332V20.9518ZM41.3549 22.7596C41.7184 23.0118 41.966 23.3982 42.043 23.8338L42.3364 25.4745L40.6957 25.7683L39.0554 26.0616L38.7616 24.4213C38.6426 23.7579 38.9352 23.0877 39.5028 22.7238C40.0704 22.3602 40.8017 22.3743 41.3549 22.7596ZM43.0448 38.8931C42.0018 39.0793 40.9547 38.5883 40.4306 37.6675L45.0708 36.8374C44.8979 37.8819 44.0866 38.7051 43.0448 38.8931ZM45.7414 35.0246H45.7383L39.1759 36.1988H39.1748L37.1247 36.5654L39.0756 27.7512L42.9032 27.066L47.7891 34.6581L45.7414 35.0246ZM40.833 20.8363C40.27 20.7504 39.6943 20.8179 39.1664 21.0316V13.3335H40.833V20.8363ZM41.6665 11.6669H1.66636V8.33321H48.3331L48.3342 11.6669H41.6665Z" fill="#F4484E"/>
<path d="M25.8332 49.1669V43.3335C25.8332 42.8731 25.4601 42.5 24.9997 42.5C24.5396 42.5 24.1666 42.8731 24.1666 43.3335V49.1669C24.1666 49.627 24.5396 50.0001 24.9997 50.0001C25.4601 50.0001 25.8332 49.627 25.8332 49.1669Z" fill="#F4484E"/>
<path d="M16.2382 45.6213L20.5859 41.7319C20.8174 41.5362 20.9242 41.2302 20.8647 40.9327C20.8052 40.6355 20.5893 40.3937 20.3001 40.3017C20.0114 40.2098 19.6955 40.2819 19.475 40.4902L15.1274 44.3797C14.8959 44.5754 14.789 44.8817 14.8486 45.1788C14.9077 45.476 15.124 45.7179 15.4127 45.8098C15.7019 45.9017 16.0178 45.8296 16.2382 45.6213Z" fill="#F4484E"/>
<path d="M34.3474 45.8334C34.6926 45.8334 35.0024 45.6206 35.1256 45.2978C35.2492 44.9751 35.1607 44.6097 34.9032 44.3793L30.5552 40.4902C30.3351 40.2819 30.0188 40.2098 29.7301 40.3017C29.4413 40.3937 29.225 40.6351 29.1659 40.9327C29.1064 41.2298 29.2132 41.5362 29.4443 41.7319L33.7923 45.6209C33.9445 45.7583 34.1425 45.8338 34.3474 45.8334Z" fill="#F4484E"/>
</g>
<defs>
<clipPath id="clip0">
<rect width="50" height="50" fill="white"/>
</clipPath>
</defs>
</svg>
