<svg width="50" height="50" viewBox="0 0 50 50" fill="none" xmlns="http://www.w3.org/2000/svg">
<g clip-path="url(#clip0)">
<path d="M2.787 46.6666H3.62013C5.92039 46.664 7.78425 44.8001 7.78692 42.4998V36.6664H11.1202C12.0403 36.6676 12.7861 37.4133 12.7868 38.3334V39.5831C12.7834 45.254 17.3191 49.8843 22.9885 49.998C28.6582 50.1113 33.3759 45.666 33.599 40.0001H35.2866C36.3616 40.0035 37.3176 39.3172 37.6582 38.298C37.9989 37.2783 37.6476 36.1556 36.7862 35.5121L39.2093 33.089C39.249 33.0356 39.2886 32.9818 39.3283 32.9284C39.3565 32.88 39.3794 32.8285 39.3974 32.7754C39.4057 32.7525 39.4202 32.7342 39.4267 32.7102L44.2641 14.1666H45.605C46.2371 14.1689 46.815 13.8115 47.0958 13.2454L47.9293 11.5787C48.1875 11.0622 48.1601 10.4484 47.8564 9.9571C47.5524 9.46577 47.016 9.1667 46.4381 9.1667H43.5779C43.1411 3.98978 38.8156 0.00801084 33.62 0H28.6201C23.4249 0.00801084 19.0994 3.98978 18.6626 9.1667H15.802C15.2244 9.1667 14.6877 9.46577 14.384 9.9571C14.0804 10.4484 14.0525 11.0622 14.3112 11.5787L15.1443 13.2454C15.4251 13.8115 16.0034 14.1689 16.6355 14.1666H17.9763L22.8137 32.7102C22.8198 32.7342 22.8351 32.7525 22.8431 32.7754C22.8607 32.8285 22.8839 32.88 22.9122 32.9284C22.9518 32.9818 22.9911 33.0356 23.0312 33.089L25.4539 35.5121C24.5929 36.1556 24.2416 37.2783 24.5822 38.298C24.9229 39.3172 25.8788 40.0035 26.9534 40.0001H28.5991C28.3759 42.9011 25.8998 45.1072 22.9923 44.995C20.0847 44.8833 17.786 42.493 17.7867 39.5831V38.3334C17.7825 34.653 14.8002 31.6707 11.1202 31.6665H7.78692V25.8335C7.78425 23.5332 5.92039 21.6693 3.62013 21.6667H2.787C2.32657 21.6667 1.95349 22.0397 1.95349 22.4998V45.8331C1.95349 46.2935 2.32657 46.6666 2.787 46.6666ZM32.7869 31.6665H29.4536V26.6666C29.4536 25.7461 30.1997 24.9999 31.1202 24.9999C32.0407 24.9999 32.7869 25.7461 32.7869 26.6666V31.6665ZM28.6201 33.3331H36.6084L34.9418 34.9998H27.2987L25.632 33.3331H28.6201ZM28.6201 1.66664H33.62C37.8978 1.67236 41.4783 4.91103 41.912 9.1667H20.3285C20.7618 4.91103 24.3427 1.67236 28.6201 1.66664ZM15.802 10.8333H46.4381L45.605 12.5H16.6355L15.802 10.8333ZM27.787 14.1666H42.5414L37.976 31.6665H34.4535V26.6666C34.4535 24.8256 32.9612 23.3333 31.1202 23.3333C29.2793 23.3333 27.787 24.8256 27.787 26.6666V31.6665H24.2641L19.6987 14.1666H27.787ZM26.1203 37.4999C26.1207 37.0399 26.4934 36.6672 26.9534 36.6664H35.2866C35.7471 36.6664 36.1201 37.0399 36.1201 37.4999C36.1201 37.96 35.7471 38.3334 35.2866 38.3334H26.9534C26.4934 38.3327 26.1207 37.96 26.1203 37.4999ZM11.1202 33.3331C13.8805 33.3362 16.1171 35.5731 16.1201 38.3334V39.5831C16.1186 43.4127 19.1627 46.5495 22.9907 46.6624C26.8184 46.775 30.0422 43.8232 30.2657 40.0001H31.9324C31.71 44.7455 27.7389 48.4458 22.9892 48.3325C18.2395 48.2192 14.4497 44.3343 14.4535 39.5831V38.3334C14.4516 36.4932 12.9604 35.0021 11.1202 34.9998H7.78692V33.3331H11.1202ZM3.62013 23.3333C5.00028 23.3348 6.11875 24.4533 6.12028 25.8335V42.4998C6.11875 43.88 5.00028 44.9985 3.62013 45V23.3333Z" fill="#F4484E"/>
<path d="M31.1201 20.8328C31.5801 20.8328 31.9532 20.4597 31.9532 19.9997V18.333C31.9532 17.8726 31.5801 17.4995 31.1201 17.4995C30.6596 17.4995 30.2866 17.8726 30.2866 18.333V19.9997C30.2866 20.4597 30.6596 20.8328 31.1201 20.8328Z" fill="#F4484E"/>
<path d="M25.5307 20.5888L27.1974 22.2554C27.5243 22.5713 28.0442 22.5667 28.3658 22.2455C28.687 21.9239 28.6916 21.4044 28.3757 21.0771L26.7091 19.4104C26.3822 19.0946 25.8622 19.0992 25.541 19.4207C25.2195 19.7423 25.2149 20.2619 25.5307 20.5888Z" fill="#F4484E"/>
<path d="M34.4532 22.4996C34.674 22.5 34.8861 22.4122 35.0422 22.2554L36.7088 20.5888C37.0247 20.2619 37.0201 19.7423 36.6989 19.4207C36.3773 19.0992 35.8577 19.0946 35.5308 19.4104L33.8638 21.0771C33.6258 21.3155 33.5544 21.6741 33.6834 21.9854C33.8123 22.2966 34.1163 22.4996 34.4532 22.4996Z" fill="#F4484E"/>
<path d="M25.2861 5.83325H24.453C23.9925 5.83325 23.6194 6.20633 23.6194 6.66638C23.6194 7.12682 23.9925 7.49989 24.453 7.49989H25.2861C25.7465 7.49989 26.1196 7.12682 26.1196 6.66638C26.1196 6.20633 25.7465 5.83325 25.2861 5.83325Z" fill="#F4484E"/>
<path d="M36.9532 5.83325H28.6196C28.1596 5.83325 27.7865 6.20633 27.7865 6.66638C27.7865 7.12682 28.1596 7.49989 28.6196 7.49989H36.9532C37.4133 7.49989 37.7863 7.12682 37.7863 6.66638C37.7863 6.20633 37.4133 5.83325 36.9532 5.83325Z" fill="#F4484E"/>
</g>
<defs>
<clipPath id="clip0">
<rect width="50" height="50" fill="white"/>
</clipPath>
</defs>
</svg>
