<svg width="50" height="50" viewBox="0 0 50 50" fill="none" xmlns="http://www.w3.org/2000/svg">
<path d="M6.01201 49.6475C6.16803 49.8688 6.42209 50 6.69255 50H10.0258C10.3562 50.0004 10.6553 49.8051 10.7884 49.5026L21.6023 25H21.7202L22.5266 49.1943C22.5415 49.6433 22.91 49.9996 23.3593 50H26.6926C27.142 49.9996 27.5101 49.6433 27.525 49.1943L28.3314 25H28.4493L39.2632 49.5026C39.3963 49.8051 39.6954 50.0004 40.0258 50H43.359C43.6295 50 43.8832 49.8684 44.0392 49.6479C44.1956 49.427 44.2353 49.1444 44.1452 48.8892L35.7125 25H39.1926C39.4391 25 39.6729 24.8905 39.8312 24.7013C39.9895 24.5125 40.0559 24.263 40.0128 24.02L35.846 0.686646C35.775 0.289536 35.4294 0 35.0258 0H15.0258C14.6222 0 14.2765 0.289536 14.2056 0.686646L10.0388 24.02C9.9957 24.263 10.0621 24.5125 10.2204 24.7013C10.3787 24.8905 10.6125 25 10.8593 25H14.3391L5.90634 48.8892C5.8167 49.1444 5.85599 49.427 6.01201 49.6475ZM25.887 48.3334H24.165L23.3868 25H26.6648L25.887 48.3334ZM42.1814 48.3334H40.5686L30.2708 25H33.9444L42.1814 48.3334ZM14.8304 6.66656H26.6926C27.1527 6.66656 27.5258 6.29349 27.5258 5.83344C27.5258 5.373 27.1527 4.99992 26.6926 4.99992H15.128L15.7231 1.66664H34.3285L34.9236 4.99992H30.0259C29.5655 4.99992 29.1924 5.373 29.1924 5.83344C29.1924 6.29349 29.5655 6.66656 30.0259 6.66656H35.2211L38.1974 23.3334H11.8542L14.8304 6.66656ZM16.1072 25H19.7808L9.483 48.3334H7.87015L16.1072 25Z" fill="#F4484E"/>
</svg>
